<svg id="visual" viewBox="0 0 900 600" width="900" height="600" xmlns="http://www.w3.org/2000/svg" xmlns:xlink="http://www.w3.org/1999/xlink" version="1.1"><rect x="0" y="0" width="900" height="600" fill="#001220"></rect><defs><linearGradient id="grad1_0" x1="33.3%" y1="0%" x2="100%" y2="100%"><stop offset="20%" stop-color="#001220" stop-opacity="1"></stop><stop offset="80%" stop-color="#001220" stop-opacity="1"></stop></linearGradient></defs><defs><linearGradient id="grad2_0" x1="0%" y1="0%" x2="66.7%" y2="100%"><stop offset="20%" stop-color="#001220" stop-opacity="1"></stop><stop offset="80%" stop-color="#001220" stop-opacity="1"></stop></linearGradient></defs><g transform="translate(900, 0)"><path d="M0 216.3C-10.5 210.2 -21 204.1 -32.1 202.5C-43.1 200.8 -54.7 203.6 -65.8 202.6C-76.9 201.6 -87.6 196.8 -97.2 190.7C-106.7 184.5 -115.1 177 -123.4 169.9C-131.8 162.8 -140.2 156.1 -149.2 149.2C-158.2 142.3 -167.8 135.1 -172.3 125.2C-176.9 115.3 -176.3 102.7 -182.7 93.1C-189 83.4 -202.2 76.7 -205.7 66.9C-209.3 57 -203.3 43.9 -203.5 32.2C-203.6 20.6 -210 10.3 -216.3 0L0 0Z" fill="#b10138"></path></g><g transform="translate(0, 600)"><path d="M0 -216.3C11.6 -216.6 23.2 -216.8 33.8 -213.7C44.5 -210.5 54.2 -203.9 65.2 -200.7C76.2 -197.4 88.5 -197.4 97.6 -191.6C106.7 -185.7 112.6 -173.9 120.5 -165.8C128.4 -157.8 138.4 -153.4 146.4 -146.4C154.3 -139.4 160.3 -129.8 165.8 -120.5C171.4 -111.2 176.4 -102.2 183.5 -93.5C190.7 -84.8 199.9 -76.3 203.5 -66.1C207.2 -55.9 205.2 -44 206.4 -32.7C207.6 -21.4 212 -10.7 216.3 0L0 0Z" fill="#b10138"></path></g></svg>