<svg xmlns="http://www.w3.org/2000/svg"  viewBox="0 0 50 50" width="500px" height="500px"><path d="M 25 1.984375 L 8 5.171875 L 8 18.355469 C 8 19.128906 8.15625 37.453125 24.464844 47.84375 L 25 48.1875 L 25.539063 47.84375 C 41.8125 37.402344 42 19.125 42 18.351563 L 42 5.171875 Z M 25 4.015625 L 40 6.828125 L 40 8.796875 L 25 5.984375 L 10 8.796875 L 10 6.828125 Z M 25 8.015625 L 40 10.828125 L 40 13.277344 C 35.191406 11.640625 30.15625 10.800781 25 10.800781 C 18.292969 10.800781 13.089844 12.160156 10 13.246094 L 10 10.828125 Z M 25 12.800781 C 30.164063 12.800781 35.207031 13.667969 40 15.386719 L 40 18.351563 C 40 19.070313 39.824219 35.898438 25 45.808594 C 10.144531 35.945313 10 19.078125 10 18.351563 L 10 15.371094 C 12.820313 14.3125 18.0625 12.800781 25 12.800781 Z M 25.5 16.097656 C 25.300781 16.300781 25.097656 16.597656 25.097656 17.097656 C 23.898438 17.097656 23.800781 17.800781 23.5 18 C 22 18.601563 21.800781 18.199219 21.402344 18.597656 C 21.199219 18.800781 21.097656 19 21.097656 19.199219 C 21 19.699219 21.199219 20.097656 21.800781 20.097656 C 22 20.097656 22.398438 19.800781 22.699219 19.800781 C 23.199219 19.800781 23.699219 20.300781 24.5 20.300781 C 24.800781 20.300781 25.097656 20.101563 25.597656 19.300781 C 25.398438 20.402344 25.097656 20.800781 24.199219 20.800781 C 24.097656 21.5 23.398438 24 22.699219 24.597656 C 21.5 25.5 20.898438 25.699219 20.199219 25.800781 C 20.097656 25.902344 19.402344 25.800781 19.300781 26.097656 C 19.199219 26.398438 19.199219 26.601563 19.300781 27 C 19.300781 27.398438 19.5 28.097656 19.800781 29.097656 C 19.800781 29.300781 20 29.5 20.097656 29.5 C 20.300781 29.601563 20.300781 29.699219 20.300781 29.699219 C 20.402344 30.699219 20.902344 31.199219 20.902344 31.199219 C 20.902344 31.199219 21.898438 30 21.699219 29.597656 C 21.597656 29.398438 21 29.199219 21 29.199219 L 21 28.800781 C 20.898438 28.601563 20.398438 27.199219 20.5 27.199219 L 22.199219 27.199219 C 22.199219 27.199219 23.300781 29.101563 25.402344 30.402344 C 25.699219 30.101563 26.199219 29.597656 27 29.699219 C 25 29.898438 25 32.101563 25.5 33 C 26.199219 34.398438 26.199219 34.699219 26.097656 35 C 25.597656 35.800781 25.5 35.898438 25.300781 36.199219 C 25.199219 36.398438 25.398438 36.5 25.199219 36.597656 C 24.199219 37.097656 24 37.902344 24 37.902344 C 24 37.902344 25.699219 38.101563 26 37.800781 C 26.101563 37.699219 26.097656 37.199219 26.097656 37.199219 C 26.097656 37.199219 26.5 37.300781 26.597656 37.300781 C 26.699219 37.199219 26.902344 37.199219 26.902344 37.097656 C 26.902344 37 27.097656 36.601563 27.097656 36.5 C 27.199219 36.101563 27.699219 35.199219 28 35 C 28 34.898438 27.5 34.300781 27.5 34 C 27.398438 32.699219 28.5 32.800781 29.902344 31.097656 C 30 30.898438 30.199219 31 30.300781 31 C 32.902344 31 32.601563 28.898438 33 26.597656 C 32.199219 27.5 32.199219 27 32.199219 27 C 32.097656 26.101563 32.800781 24.597656 32.800781 24.597656 C 32.800781 24.597656 31.800781 25.199219 31.699219 26 C 31.300781 25.199219 32 24 32 24 C 31.601563 24.199219 31.097656 24.601563 31.097656 26 C 31.097656 29.601563 31 29.398438 30.699219 30 C 30.597656 30.101563 30.300781 30.101563 30.402344 29.800781 C 30.300781 29.402344 30.5 28.5 28.097656 27.097656 C 27 26.398438 26.398438 25.300781 26.597656 24.800781 C 26.898438 25.101563 27.601563 25.097656 28 25.097656 C 27.699219 24.898438 27 24.398438 26.800781 24.097656 C 27.101563 24.300781 28.402344 24.601563 28.800781 24.402344 C 28.101563 24.101563 27.199219 23.398438 27 23 C 27.199219 23.199219 28.300781 23.398438 28.800781 23.199219 C 28.300781 23 27.5 22.601563 27.300781 22 C 27.699219 22.101563 28 22.199219 29 22 C 28.199219 21.699219 27.601563 21.097656 27.300781 20.699219 C 27.601563 20.699219 28.601563 20.800781 29 21.097656 C 28.800781 20.5 27.898438 20 27.199219 19.5 C 27.398438 19.5 28.199219 19.601563 28.597656 19.5 C 28.199219 19.101563 27.300781 18.699219 27.199219 18.5 C 27.5 18.5 27.898438 18.300781 28.097656 18.097656 C 26.800781 18.097656 26.597656 17.097656 26.097656 17.097656 C 25.898438 17 25.601563 16.300781 25.5 16.097656 Z M 20.699219 21.300781 C 20.5 21.300781 18.5 23.097656 18.5 23.199219 C 18.398438 23.398438 18.402344 23.5 18.402344 23.5 C 17.402344 23.800781 17.097656 24.402344 17.097656 24.402344 C 17.097656 24.402344 18.398438 25.199219 18.699219 24.902344 C 18.898438 24.699219 19 24.097656 19 24.097656 C 19 24.097656 19.300781 24.101563 19.402344 24 L 19.699219 23.699219 C 20 23.398438 20.597656 22.902344 20.597656 22.902344 C 20.800781 23.101563 21.398438 23.902344 21.699219 24.300781 C 21.898438 24.199219 22.398438 23.800781 22.699219 23.199219 C 22 22.398438 21.199219 21.300781 20.699219 21.300781 Z M 24.097656 30.097656 C 24 31.699219 24.199219 32.898438 24 33 C 23.101563 33.300781 22.597656 32.898438 22.199219 33 C 22 33.101563 22.101563 33.300781 21.902344 33.199219 C 20.800781 33 20.199219 33.597656 20.199219 33.597656 C 20.199219 33.597656 21.402344 35 21.800781 34.902344 C 21.902344 34.902344 22.300781 34.5 22.300781 34.5 C 22.300781 34.5 22.398438 34.898438 22.597656 35 C 22.699219 35 22.898438 35.101563 23 35 C 23.101563 34.898438 23.398438 34.699219 23.5 34.699219 C 23.800781 34.5 24.902344 34.300781 25.300781 34.300781 C 25.402344 34.101563 25.5 33.898438 25.402344 33.699219 C 25.402344 33.699219 24.402344 32.699219 24.902344 30.800781 C 24.800781 30.699219 24.199219 30.199219 24.097656 30.097656 Z"/></svg>