<svg xmlns="http://www.w3.org/2000/svg" xmlns:xlink="http://www.w3.org/1999/xlink" viewBox="0,0,256,256" width="480px" height="480px"><g fill="none" fill-rule="nonzero" stroke="none" stroke-width="1" stroke-linecap="butt" stroke-linejoin="miter" stroke-miterlimit="10" stroke-dasharray="" stroke-dashoffset="0" font-family="none" font-weight="none" font-size="none" text-anchor="none" style="mix-blend-mode: normal"><g transform="scale(3.2,3.2)"><path d="M40,5.5c-19.054,0 -34.5,15.446 -34.5,34.5c0,19.054 15.446,34.5 34.5,34.5c19.054,0 34.5,-15.446 34.5,-34.5c0,-19.054 -15.446,-34.5 -34.5,-34.5zM40,66.5c-14.636,0 -26.5,-11.864 -26.5,-26.5c0,-14.636 11.864,-26.5 26.5,-26.5c14.636,0 26.5,11.864 26.5,26.5c0,14.636 -11.864,26.5 -26.5,26.5z" fill="#000000"></path><path d="M40,70.5c-16.845,0 -30.5,-13.655 -30.5,-30.5h-4c0,19.054 15.446,34.5 34.5,34.5c19.054,0 34.5,-15.446 34.5,-34.5h-4c0,16.845 -13.655,30.5 -30.5,30.5z" fill="#000000"></path><path d="M40,13.5c14.636,0 26.5,11.864 26.5,26.5h4c0,-16.845 -13.655,-30.5 -30.5,-30.5c-16.845,0 -30.5,13.655 -30.5,30.5h4c0,-14.636 11.864,-26.5 26.5,-26.5z" fill="#000000"></path><path d="M40,75c-19.299,0 -35,-15.701 -35,-35c0,-19.299 15.701,-35 35,-35c19.299,0 35,15.701 35,35c0,19.299 -15.701,35 -35,35zM40,6c-18.748,0 -34,15.252 -34,34c0,18.748 15.252,34 34,34c18.748,0 34,-15.252 34,-34c0,-18.748 -15.252,-34 -34,-34zM40,67c-14.888,0 -27,-12.112 -27,-27c0,-14.888 12.112,-27 27,-27c14.888,0 27,12.112 27,27c0,14.888 -12.112,27 -27,27zM40,14c-14.336,0 -26,11.664 -26,26c0,14.337 11.664,26 26,26c14.337,0 26,-11.663 26,-26c0,-14.336 -11.663,-26 -26,-26z" fill="#000000"></path><path d="M0.506,31.822v1.022v14.312v1.022c26.274,4.268 52.604,4.251 78.987,0v-1.022v-14.312v-1.022c-26.274,-4.269 -52.603,-4.251 -78.987,0z" fill="#000000"></path><path d="M73.924,41.034h-67.848c-2.349,0 -4.405,-1.26 -5.57,-3.15v9.273v1.022c26.274,4.268 52.604,4.251 78.987,0v-1.022v-9.273c-1.164,1.89 -3.22,3.15 -5.569,3.15z" fill="#000000"></path><path d="M39.919,51.875c-13.223,0 -26.415,-1.061 -39.493,-3.186l-0.426,-0.069v-17.24l0.427,-0.069c26.368,-4.248 52.995,-4.248 79.146,0l0.427,0.069v17.24l-0.427,0.069c-13.182,2.124 -26.433,3.186 -39.654,3.186zM1.013,47.737c25.768,4.138 51.997,4.138 77.975,-0.001v-15.473c-25.767,-4.14 -51.996,-4.14 -77.975,0.001z" fill="#000000"></path><path d="M31.864,39.158c1.549,0.174 2.621,0.294 2.93,1.961c0,0.131 0.039,0.416 0.039,0.899c0,0.307 0,0.795 0,1.312c0,1.521 -1.141,1.624 -2.766,1.624h-6.757c-0.233,0 -0.27,-0.043 -0.27,-0.307v-1.032c0,-0.264 0.039,-0.307 0.27,-0.307h7.524c0.27,0 0.349,-0.088 0.387,-0.307v-1.21v-0.397c-0.039,-0.176 -0.077,-0.44 -0.426,-0.481c-0.736,-0.043 -3.876,-0.45 -5.348,-0.624c-1.898,-0.219 -2.332,-0.821 -2.409,-1.611c-0.038,-0.263 -0.038,-0.613 -0.038,-0.92c0,-0.264 -0.005,-0.617 0.034,-0.926c0,-1.521 0.936,-1.832 2.562,-1.832h6.928c0.233,0 0.311,0.045 0.311,0.264v1.127c0,0.219 -0.077,0.307 -0.311,0.262h-7.449c-0.27,0 -0.387,0.131 -0.426,0.438v0.329v0.715c0,0.219 0.116,0.395 0.387,0.438c0.736,0.089 3.977,0.497 4.828,0.585z" fill="#ffffff"></path><path d="M43.903,39.158c1.557,0.174 2.635,0.294 2.947,1.961c0,0.131 0.04,0.416 0.04,0.899c0,0.307 0,0.795 0,1.312c0,1.521 -1.147,1.624 -2.782,1.624h-6.795c-0.234,0 -0.272,-0.043 -0.272,-0.307v-1.032c0,-0.264 0.04,-0.307 0.272,-0.307h7.567c0.272,0 0.351,-0.088 0.389,-0.307v-1.21v-0.397c-0.04,-0.176 -0.077,-0.44 -0.429,-0.481c-0.74,-0.043 -3.898,-0.45 -5.378,-0.624c-1.909,-0.219 -2.345,-0.821 -2.423,-1.611c-0.039,-0.263 -0.039,-0.613 -0.039,-0.92c0,-0.264 -0.005,-0.617 0.035,-0.926c0,-1.521 0.941,-1.832 2.576,-1.832h6.967c0.234,0 0.313,0.045 0.313,0.264v1.127c0,0.219 -0.077,0.307 -0.313,0.262h-7.491c-0.272,0 -0.389,0.131 -0.429,0.438v0.329v0.715c0,0.219 0.117,0.395 0.389,0.438c0.74,0.089 4,0.497 4.856,0.585z" fill="#ffffff"></path><path d="M18.748,35c0.215,0 0.252,0.088 0.252,0.307v9.383c0,0.264 -0.037,0.307 -0.252,0.307h-1.102c-0.275,0 -1.182,0.027 -1.833,-0.876c-1.5,-2.172 -5.147,-7.421 -5.147,-7.421v7.992c0,0.264 -0.037,0.307 -0.252,0.307h-1.162c-0.215,-0.002 -0.252,-0.045 -0.252,-0.308v-9.383c0,-0.22 0.037,-0.308 0.252,-0.308h0.722c0.942,0 1.627,0.04 2.087,0.835c0.462,0.767 5.24,7.443 5.24,7.443v-7.969c0,-0.219 0.037,-0.307 0.252,-0.307h1.197v-0.002z" fill="#ffffff"></path><path d="M70.748,35c0.215,0 0.252,0.088 0.252,0.307v9.383c0,0.264 -0.037,0.307 -0.252,0.307h-1.102c-0.275,0 -1.182,0.027 -1.833,-0.876c-1.5,-2.172 -5.147,-7.421 -5.147,-7.421v7.992c0,0.264 -0.037,0.307 -0.252,0.307h-1.163c-0.215,0 -0.252,-0.043 -0.252,-0.307v-9.383c0.001,-0.221 0.038,-0.309 0.253,-0.309h0.722c0.942,0 1.627,0.04 2.087,0.835c0.462,0.767 5.24,7.443 5.24,7.443v-7.969c0,-0.219 0.037,-0.307 0.252,-0.307h1.197v-0.002z" fill="#ffffff"></path><path d="M22.621,35.045c0.131,0 0.157,0.086 0.157,0.262v9.386c0,0.219 -0.026,0.307 -0.183,0.307h-1.357c-0.157,0 -0.183,-0.045 -0.183,-0.309v-9.386c0,-0.176 0.026,-0.262 0.131,-0.262h1.435z" fill="#ffffff"></path><path d="M58.862,44.516c-0.906,-2.543 -2.921,-8.462 -2.921,-8.462c-0.403,-1.097 -0.603,-1.054 -1.376,-1.054c-0.265,0 -0.517,0 -0.787,0c-0.27,0 -0.522,0 -0.787,0c-0.753,0 -0.973,-0.043 -1.376,1.054c0,0 -2.015,5.918 -2.921,8.462c-0.169,0.438 -0.067,0.438 0.201,0.438h1.347c0.134,0 0.201,-0.086 0.234,-0.174c0,0 0.224,-0.611 0.541,-1.482h5.523c0.319,0.871 0.541,1.482 0.541,1.482c0.033,0.088 0.1,0.174 0.234,0.174h1.347c0.267,0 0.369,0 0.2,-0.438zM51.622,41.637c0.806,-2.21 1.739,-4.777 1.739,-4.802c0.033,-0.088 0.102,-0.131 0.201,-0.131c0.031,-0.041 0.122,-0.043 0.215,-0.045c0.093,0 0.184,0.002 0.217,0.043c0.102,0 0.169,0.043 0.201,0.131c0,0.025 0.933,2.593 1.739,4.802h-4.314v0.002z" fill="#ffffff"></path></g></g></svg>