<svg xmlns="http://www.w3.org/2000/svg" xmlns:xlink="http://www.w3.org/1999/xlink" viewBox="0,0,256,256" width="480px" height="480px"><g fill="#000000" fill-rule="nonzero" stroke="none" stroke-width="1" stroke-linecap="butt" stroke-linejoin="miter" stroke-miterlimit="10" stroke-dasharray="" stroke-dashoffset="0" font-family="none" font-weight="none" font-size="none" text-anchor="none" style="mix-blend-mode: normal"><g transform="scale(5.33333,5.33333)"><path d="M25,4c-11.046,0 -20,8.954 -20,20c0,11.046 8.954,20 20,20c11.046,0 20,-8.954 20,-20c0,-11.046 -8.954,-20 -20,-20zM25,40c-8.837,0 -16,-7.163 -16,-16c0,-8.837 7.163,-16 16,-16c8.837,0 16,7.163 16,16c0,8.837 -7.163,16 -16,16z"></path><path d="M25,6c-9.75,0 -18,9.917 -18,18c0,11.046 6.954,20 18,20c11.046,0 20,-8.954 20,-20c0,-11.046 -8.954,-18 -20,-18zM25,40c-8.837,0 -16,-7.163 -16,-16c0,-8.837 7.163,-16 16,-16c8.837,0 16,7.163 16,16c0,8.837 -7.163,16 -16,16z"></path><path d="M25,8c9.417,0 16,8.083 16,16c0,8.837 -7.163,16 -16,16c-7.333,0 -16,-6.059 -16,-16c0,9.941 6.059,18 16,18c9.941,0 18,-8.059 18,-18c0,-8.917 -8.059,-16 -18,-16z"></path><path d="M9,24c0,-8.837 7.163,-16 16,-16c9.941,0 18,7.083 18,16c0,-9.941 -8.059,-18 -18,-18c-9.941,0 -18,8.059 -18,18c0,9.941 8.059,18 18,18c-9.941,0 -16,-8.059 -16,-18z"></path><path d="M9.096,25.721c0.012,0.109 0.034,0.21 0.048,0.317c-0.014,-0.106 -0.037,-0.209 -0.048,-0.317z"></path><path d="M25,8l-3.292,14.396l3.292,1.604l3.354,-1.604z"></path><path d="M25,8l-3.292,14.396l3.292,1.604z"></path><path d="M11,32l14,-4.313v-3.687l-3.292,-1.604z"></path><path d="M11,32l14,-4.313v-3.687z"></path><path d="M39,32.063l-14,-4.376v-3.687l3.354,-1.604z"></path><path d="M39,32.063l-14,-4.376v-3.687z"></path></g></g></svg>