<svg xmlns="http://www.w3.org/2000/svg" xmlns:xlink="http://www.w3.org/1999/xlink" viewBox="0,0,256,256" width="400px" height="400px"><g fill="none" fill-rule="nonzero" stroke="none" stroke-width="none" stroke-linecap="none" stroke-linejoin="none" stroke-miterlimit="10" stroke-dasharray="" stroke-dashoffset="0" font-family="none" font-weight="none" font-size="none" text-anchor="none" style="mix-blend-mode: normal"><g transform="scale(2.56,2.56)"><path d="M1,59.992l10.25,-20h22.75v-6h32v6h33l-10.75,20h-22.25v6h-32v-6z" fill="#000000" stroke="none" stroke-width="1" stroke-linecap="butt" stroke-linejoin="miter"></path><path d="M1,59.992l10.25,-20h22.75v-6h32v6h33l-10.75,20h-22.25v6h-32v-6z" fill="none" stroke="#000000" stroke-width="2" stroke-linecap="round" stroke-linejoin="round"></path><path d="M14.5,55.492l6,-11h18l-0.01,-6.01l23.521,0.003l-0.011,5.509h25.16c0.276,0 0.46,0.286 0.345,0.537l-5.005,10.961h-21l0.01,6.01h-23.02l0.01,-6.01z" fill="#818181" stroke="none" stroke-width="1" stroke-linecap="butt" stroke-linejoin="miter"></path><path d="M14.5,54.494l4.75,-8.75l2.25,-1.75h16.5l0.489,-5.512h11.511v23.02h-11.511l0.011,-6.01l-23.75,0.002z" fill="#818181" stroke="none" stroke-width="1" stroke-linecap="butt" stroke-linejoin="miter"></path><path d="M61.5,41.494v2.998l2,0.002" fill="none" stroke="#000000" stroke-width="1" stroke-linecap="round" stroke-linejoin="round"></path><path d="M30.5,44.492h8l-0.011,-6.01h23.021" fill="none" stroke="#000000" stroke-width="1" stroke-linecap="round" stroke-linejoin="round"></path><path d="M19.407,46.494l1.093,-2.002h7" fill="none" stroke="#000000" stroke-width="1" stroke-linecap="round" stroke-linejoin="round"></path><path d="M80.5,44.492h7l-5,11h-21l0.01,6.01h-23.021l0.011,-6.01h-24l3.75,-6.876" fill="none" stroke="#000000" stroke-width="1" stroke-linecap="round" stroke-linejoin="round"></path><path d="M66.5,44.494l11,-0.002" fill="none" stroke="#000000" stroke-width="1" stroke-linecap="round" stroke-linejoin="round"></path></g></g></svg>